<?xml version="1.0" encoding="utf-8"?>
<!-- Generator: Adobe Illustrator 25.0.0, SVG Export Plug-In . SVG Version: 6.00 Build 0)  -->
<svg version="1.1" id="Layer_1" xmlns="http://www.w3.org/2000/svg" xmlns:xlink="http://www.w3.org/1999/xlink" x="0px" y="0px"
	 viewBox="0 0 1903.2 390.8" style="enable-background:new 0 0 1903.2 390.8;" xml:space="preserve">
<style type="text/css">
	.st0{fill:#2567A5;}
	.st1{fill:#1C355E;}
	.st2{fill:#FFFFFF;}
	.st3{fill:#666666;}
	.st4{fill:#CCCCCC;}
	.st5{fill:#24272A;}
</style>
<g>
	<g>
		<path class="st1" d="M900.7,2c45-5.9,92.4,0.8,132.5,22.8c19.6,10.6,37.6,24.4,52.2,41.3c-7.5-0.2-14.5,3.2-21.8,3.8
			c-11.1-10.6-23.2-20.3-36.7-27.9c-21.6-12.6-45.8-20.3-70.5-23.3c-27.4-2.7-55.5-1.5-81.9,6.7c-34.7,10.3-66.1,31.6-88.3,60.2
			c-5.2-3.5-10.8-6.5-16.6-9C800.5,34.9,849.6,8.4,900.7,2z"/>
		<path class="st1" d="M1037.7,342.1c9.2-6,17.4-13.4,25.5-20.8c7.1,1.6,14,4,21.3,4.3c-24.3,27.5-57.1,46.9-92.3,57
			c-36.6,10.2-75.8,10.8-112.8,2.3c-23-5.4-45-15-64.7-28.1c-13.2-8.9-25.7-19.2-36-31.4c8-0.3,16.2,0.7,24-1.7
			c16,15.2,34.8,27.4,55.2,35.8c24.8,10.3,51.9,14.6,78.7,13.8C972.4,373,1008.1,362.2,1037.7,342.1z"/>
	</g>
	<g>
		<path class="st1" d="M462.3,126.9c15-13.8,34.4-22.4,54.6-25c7.9-0.7,15.8-1.4,23.7-0.6c23.5,1.1,47.3,10.6,62.8,28.7
			c-5.9,5.5-11.4,11.5-17.6,16.5c-11.1-11.5-26.1-19.5-42.2-21.1c-10.3-1.4-21-0.6-31.1,1.9c-16.3,4.1-31.1,14.2-40.5,28.2
			c-17.6,25.7-15.9,63.1,4.4,86.8c21.4,25.2,60.5,32,89.7,17.4c7.5-3.6,13.8-9.1,20-14.7c5.7,5.6,11.7,11,17.2,16.8
			c-11.9,13.4-28.3,22.3-45.6,26.2c-28.6,6.6-60.2,2.3-84.6-14.5c-15.8-10.6-28-26.4-34.5-44.3c-6.2-17.3-7-36.2-3.6-54.1
			C438.9,156.8,448.5,139.6,462.3,126.9z"/>
		<g>
			<path class="st1" d="M914.1,102.1c14.4-1.6,29.1-1.6,43.2,1.8c20.8,4.8,40,16.4,53.3,33.2c26,32.5,26.5,82.5,1.5,115.7
				c-11.3,15.2-27.5,26.4-45.4,32.5c-21.7,7.3-45.7,7.6-67.7,1.2c-21.1-6.2-40.3-19.7-52.4-38.3c-16.2-24.2-19.4-55.9-10.3-83.4
				c7.4-22.3,23.8-41.3,44.7-52C891.4,107.3,902.6,103.8,914.1,102.1z M924.1,125c-16.4,1.1-32.4,8-44.4,19.3
				c-10.1,9.6-17,22.3-19.9,35.8c-2.7,14.9-1.9,30.6,4.1,44.6c5.5,13,15.2,24.3,27.3,31.6c27.2,16.7,65.4,14.4,89.2-7.3
				c14.8-13.2,23.5-33.1,22.9-52.9c0.7-20.6-8.5-41.3-24.2-54.6C964.1,128.7,943.6,123.1,924.1,125z"/>
		</g>
		<g>
			<path class="st1" d="M1349.9,102c21-2.5,43-0.7,62.3,8.5c18.5,8.5,34.2,23.1,43.5,41.2c9.6,18.3,12.1,39.7,9.1,60.1
				c-2.9,19.4-12.2,37.8-26.2,51.5c-14.6,14.1-33.8,23.4-53.9,26.3c-20.1,3.3-41.2,1.1-60.1-6.7c-17.9-7.4-33.6-20.4-43.8-37
				c-12-19.1-16-42.5-12.7-64.7c2.5-18.7,11.3-36.5,24.2-50.2C1307.5,115.1,1328.3,105.1,1349.9,102z M1364.9,124.6
				c-19.7,0.4-39.5,8.3-52.8,23.1c-11.9,13-18.5,30.8-18.1,48.4c-0.4,21.6,9.8,43.3,27.2,56.3c27.9,21.3,71.3,19.7,96.6-5
				c16.2-15.4,23.8-38.7,20.7-60.7c-1.8-18.3-11.5-35.5-25.9-46.8C1399.3,129.2,1381.9,124.3,1364.9,124.6z"/>
		</g>
		<path class="st1" d="M0,103.1c7.3-0.1,14.7,0,22,0c26.3,43.2,52,86.8,78.1,130.2c23.9-40.2,47.6-80.6,71.4-120.9
			c1.8-2.9,3.3-6.1,5.4-8.8c1.4-0.8,3.1-0.4,4.6-0.5c5.8,0.1,11.7-0.2,17.5,0.2c0.2,61.8,0.1,123.7,0.3,185.6
			c-8.6,0.1-17.3,0.1-25.9,0c0-44.9-0.2-89.8-0.2-134.7c-22.7,37.2-44.8,74.8-67.4,112c-3.7,0-7.4,0.1-11,0
			c-1.5,0.2-2.1-1.4-2.9-2.4C69.9,227.5,48.1,191.2,26,154.9c-0.2,44.6,0,89.3-0.1,133.9c-8.6,0-17.3,0-25.9,0
			C0,227,0,165.1,0,103.1z"/>
		<g>
			<path class="st1" d="M309.4,108.4c0.9-1.7,1.3-3.9,2.9-5.2c8.6-0.3,17.3,0,26-0.1c6.3,12.5,11.7,25.5,17.8,38.2
				c22.4,49.2,45.1,98.3,67.4,147.5c-9.4,0.1-18.8,0-28.2,0c-6.8-15.5-13.7-31-20.6-46.5c-33-0.2-66.1,0-99.1-0.1
				c-6.9,15.4-13.8,30.9-20.6,46.4c-9.3,0.4-18.5,0.1-27.8,0.1C254.4,228.7,282,168.6,309.4,108.4z M325,130.5
				c-13.3,30.2-26.9,60.3-40.1,90.6c26.8,0.1,53.5,0.1,80.3,0C352,190.8,338.5,160.7,325,130.5z"/>
		</g>
		<g>
			<path class="st1" d="M641.8,103.3c17.5-0.4,34.9-0.1,52.4-0.2c17.9,0.2,36.3-1.2,53.6,4.4c16.5,4.9,31.8,15.8,39.2,31.6
				c6.1,13.3,7.6,28.6,4.6,42.9c-2.3,13.4-9.7,25.9-20.5,34.2c-5.7,4.5-12.3,7.9-19.2,10.2c14.6,20.9,29.7,41.5,44.3,62.4
				c-9.7,0.1-19.4,0.1-29.1,0c-13.2-18.1-25.9-36.6-38.9-54.8c-0.8-0.9-1.5-2.5-3-2.2c-18.8,0.9-37.6,0.2-56.4,0.5
				c-0.1,18.9,0.1,37.7-0.1,56.5c-9,0-17.9,0.1-26.9-0.1C641.8,227,641.8,165.1,641.8,103.3z M668.7,126.4c0,27.7,0,55.5,0,83.2
				c12.8,0.1,25.6,0,38.4,0c8,0,16.1,0.4,24-1.5c12.1-2.1,24.4-8.5,30.2-19.7c4.8-8.5,5.2-18.6,4.2-28.1
				c-1.2-9.8-6.5-19.2-14.8-24.7c-10.1-7-22.7-8.9-34.7-9.4C700.3,126.3,684.5,125.9,668.7,126.4z"/>
		</g>
		<g>
			<path class="st1" d="M1079.3,103.2c28.9-0.1,57.8-0.1,86.7,0c17.1,0.2,35.3,3.2,49,14.1c10,7.7,15.9,20.4,15.5,33
				c0.6,11.4-3.1,23.2-10.9,31.7c-3.8,4.4-8.6,7.6-13.6,10.6c9.5,2.8,18.5,7.9,24.7,15.7c10.4,12.9,12.1,31.3,7.3,46.8
				c-3.9,12.2-14.1,21.5-25.7,26.4c-16.7,7.2-35.3,7.8-53.3,7.5c-26.6,0-53.2,0-79.8,0C1079.2,227,1079.2,165.1,1079.3,103.2z
				 M1106.4,124.6c0,19.8,0,39.5,0,59.3c17.5,0.1,35.1,0,52.6,0c9,0.1,18.2-0.5,26.7-3.9c6.5-2.5,12.5-7,15.5-13.5
				c3.7-8.3,3.5-18.5-1.1-26.5c-4.9-8.3-14.5-12.3-23.5-14.1c-6.8-1-13.7-1.6-20.5-1.4C1139.5,124.6,1122.9,124.5,1106.4,124.6z
				 M1106.5,205.6c-0.1,20.5-0.1,41,0,61.5c22.2,0.2,44.4,0.1,66.5,0c9.6-0.6,19.7-1.9,28.1-7c6.5-3.7,11-10.7,11.7-18.1
				c1.3-8.8-0.2-18.7-6.7-25.2c-7.3-7.4-17.9-9.7-27.8-10.9c-8.1-0.6-16.2-0.2-24.3-0.4C1138.2,205.6,1122.3,205.6,1106.5,205.6z"/>
		</g>
		<path class="st1" d="M1506.2,103.2c7.4,0.2,15.1-0.7,22.4,0.4c37.5,45.6,74.4,91.8,111.9,137.6c0.1-46-0.1-92,0.1-138
			c8.9-0.1,17.9-0.1,26.8,0c0,61.9,0,123.7,0,185.6c-6.9,0.1-13.8,0.1-20.7,0c-1.4,0.2-2.2-1.1-3-2c-24.8-30.7-49.7-61.3-74.6-92
			c-12-14.6-23.6-29.5-35.8-43.9c-0.2,46,0,91.9-0.1,137.8c-9,0.1-18,0.1-27.1,0C1506.2,227,1506.2,165.1,1506.2,103.2z"/>
		<g>
			<path class="st1" d="M1723.3,103.2c27.3-0.1,54.7-0.1,82,0c21.9,0.2,44,6.2,61.9,19.1c17.1,12.1,29.2,30.9,33.6,51.3
				c3.8,18.2,3.1,37.6-3,55.2c-6.8,19.4-20.8,36-38.7,46c-16.9,9.8-36.5,13.7-55.8,14.1c-26.7-0.1-53.4,0-80.1,0
				C1723.2,227,1723.1,165.1,1723.3,103.2z M1750.1,126.2c-0.1,36.9,0,73.9-0.1,110.8c0.2,9.5-0.5,19.1,0.3,28.6
				c13.7-0.2,27.3,0,41-0.1c9-0.1,18.2,0.4,27-1.6c18-3,35.5-12.5,46-27.7c10.7-15.2,13.8-34.9,10.9-53.1
				c-2.4-16.8-11.7-32.6-25.5-42.4c-13.9-10.2-31.4-14.3-48.4-14.6C1784.2,126.2,1767.2,126.1,1750.1,126.2z"/>
		</g>
	</g>
</g>
</svg>
