<svg width="271" height="27" viewBox="0 0 271 27" fill="none" xmlns="http://www.w3.org/2000/svg">
<g clip-path="url(#clip0_49098_4670)">
<path d="M79.3653 26.4219L77.5631 21.639H67.5853L65.8198 26.4219H58.9116L69.1569 0.578125H76.2557L86.541 26.4219H79.3653ZM69.6183 16.241H75.5267L72.5341 8.3726L69.6183 16.241Z" fill="black"/>
<path d="M111.753 15.6595C111.101 22.1028 106.072 27 98.6284 27C90.493 27 85.2734 20.9836 85.2734 13.5756C85.2734 6.16768 90.493 0 98.6284 0C105.881 0 110.947 4.8602 111.676 11.0716H105.115C104.386 8.21797 102.046 6.17441 98.5548 6.24835C94.1812 6.32566 91.7235 9.60276 91.7235 13.5017C91.7235 17.4006 94.1411 20.755 98.6317 20.755C102.046 20.755 104.58 18.7887 105.269 15.6629H111.756L111.753 15.6595Z" fill="black"/>
<path d="M113.635 26.4219V0.578125H126.914C132.287 0.578125 136.009 3.0452 136.009 7.79112C136.009 10.2582 135.089 12.1102 133.477 13.2698V13.4244C135.627 13.9655 136.778 15.5856 136.778 18.3989V26.4219H130.445V19.5181C130.445 18.5938 129.906 18.0896 128.987 18.0896H119.969V26.4219H113.635ZM119.965 12.4597H126.375C128.371 12.4597 129.712 11.4178 129.712 9.52883C129.712 7.75415 128.291 6.75253 126.412 6.75253H119.965V12.4631V12.4597Z" fill="black"/>
<path d="M137.885 13.579C137.885 6.17441 143.142 0 151.508 0C159.874 0 165.13 6.17104 165.13 13.579C165.13 20.9869 159.874 27.0034 151.508 27.0034C143.142 27.0034 137.885 20.9096 137.885 13.579ZM158.684 13.5017C158.684 9.60612 156.035 6.24835 151.508 6.24835C146.981 6.24835 144.332 9.60276 144.332 13.5017C144.332 17.4006 146.94 20.755 151.508 20.755C156.076 20.755 158.684 17.3603 158.684 13.5017Z" fill="black"/>
<path d="M185.046 12.9605C187.273 13.7706 189.266 15.7772 189.266 18.977C189.266 23.3733 185.698 26.4219 181.398 26.4219H167.124V0.578125H180.94C185.237 0.578125 188.577 3.27712 188.577 7.40459C188.577 9.79772 187.156 11.8413 185.046 12.8059V12.9605ZM173.457 6.24836V10.8397H179.673C181.171 10.8397 182.09 9.64311 182.09 8.52385C182.09 7.40459 181.207 6.24836 179.673 6.24836H173.457ZM180.211 20.792C181.746 20.792 182.782 19.5181 182.782 18.2846C182.782 17.1653 181.786 16.0461 180.211 16.0461H173.457V20.792H180.211Z" fill="black"/>
<path d="M190.151 13.579C190.151 6.17441 195.407 0 203.773 0C212.139 0 217.396 6.17104 217.396 13.579C217.396 20.9869 212.139 27.0034 203.773 27.0034C195.407 27.0034 190.151 20.9096 190.151 13.579ZM210.949 13.5017C210.949 9.60612 208.301 6.24835 203.773 6.24835C199.246 6.24835 196.598 9.60276 196.598 13.5017C196.598 17.4006 199.206 20.755 203.773 20.755C208.341 20.755 210.949 17.3603 210.949 13.5017Z" fill="black"/>
<path d="M237.234 0.578125H243.567V26.4219H237.234L225.377 9.912V26.4219H219.044V0.578125H226.066L237.234 16.2377V0.578125Z" fill="black"/>
<path d="M246.402 0.578125H257.493C265.244 0.578125 270.848 5.97947 270.848 13.4244V13.5387C270.848 20.9836 265.244 26.4219 257.493 26.4219H246.402V0.578125ZM252.731 6.74917V20.2509H257.376C261.519 20.2509 264.398 17.5888 264.398 13.5387V13.4244C264.398 9.37422 261.519 6.75253 257.376 6.75253H252.731V6.74917Z" fill="black"/>
<path d="M31.9891 0.578125H25.7363V26.4219H31.9891V0.578125Z" fill="black"/>
<path d="M30.4415 5.33413L9.46281 26.4253H0L25.7101 0.578125L30.4415 5.33413Z" fill="black"/>
<path d="M57.107 0.578125V26.4253H50.8508V11.6195L36.1216 26.4253H27.5683L27.1135 25.9715L31.9921 21.0676L46.1227 6.86345H31.9921V0.578125H57.107Z" fill="url(#paint0_linear_49098_4670)"/>
</g>
<defs>
<linearGradient id="paint0_linear_49098_4670" x1="30.5944" y1="1.69738" x2="58.2629" y2="29.2261" gradientUnits="userSpaceOnUse">
<stop stop-color="white" stop-opacity="0"/>
<stop offset="0.37"/>
</linearGradient>
<clipPath id="clip0_49098_4670">
<rect width="270.844" height="27" fill="white"/>
</clipPath>
</defs>
</svg>
